PathFileType	4	(X/Y/Z)	5_1_13_p1_0-404_filt_butterworth.trc
DataRate	CameraRate	NumFrames	NumMarkers	Units	OrigDataRate	OrigDataStartFrame	OrigNumFrames
60.0	60.0	6	27	m	60.0	101	404
Frame#	Time	RHip			RKnee			RAnkle			RBigToe			RSmallToe			RHeel			LHip			LKnee			LAnkle			LBigToe			LSmallToe			LHeel			Neck			Head			Nose			RShoulder			RElbow			RWrist			RThumb			RIndex			RPinky			LShoulder			LElbow			LWrist			LThumb			LIndex			LPinky			
		X1	Y1	Z1	X2	Y2	Z2	X3	Y3	Z3	X4	Y4	Z4	X5	Y5	Z5	X6	Y6	Z6	X7	Y7	Z7	X8	Y8	Z8	X9	Y9	Z9	X10	Y10	Z10	X11	Y11	Z11	X12	Y12	Z12	X13	Y13	Z13	X14	Y14	Z14	X15	Y15	Z15	X16	Y16	Z16	X17	Y17	Z17	X18	Y18	Z18	X19	Y19	Z19	X20	Y20	Z20	X21	Y21	Z21	X22	Y22	Z22	X23	Y23	Z23	X24	Y24	Z24	X25	Y25	Z25	X26	Y26	Z26	X27	Y27	Z27	
101	1.6833333333333331	0.3600800716555461	0.8198861196062553	0.7209477878269882	0.38202706967576533	0.3957600419230747	0.6987867509413248	0.39272768595297697	-0.05070642696782558	0.6679223658385417	0.38994654439564047	-0.07911566020884997	0.584248819278739	0.45032709160810025	-0.06859246659951804	0.5937366100527659	0.3663900524224702	-0.11574323316353716	0.7217977659021413	0.14046554165322933	0.8043531954722389	0.679922589903118	0.167433793633184	0.37340944699273776	0.6715227161253785	0.17333840966123348	-0.07010179962155905	0.6881977959579025	0.23990893089599813	-0.10388023185000948	0.614667664915502	0.17110667041735705	-0.10458451959771504	0.611929375709569	0.1535658879707561	-0.13969628979870913	0.7592244335653504	0.22783597632324612	1.3347562642279638	0.7391084489187149	0.23945961302979812	1.5950070774833773	0.6779742166284524	0.25249047718933937	1.4516437997007012	0.6375292513099473	0.3828988365320106	1.2813689485466866	0.703939392999577	0.4580774017691025	1.1530658704190337	0.5245224730523537	0.3531430872166662	1.3269747741370663	0.48871907791323443	0.28533269456117627	1.3866853658973595	0.5094076071358079	0.29396691067963965	1.4295497942650093	0.46820364159329486	0.29375937603337554	1.4123598618384765	0.4428153759291185	0.09319814808215224	1.2630568519933194	0.7012722575471408	0.05758275954351286	1.1152084325803941	0.4892169045120984	0.14635767939627917	1.2924674943144039	0.4933163468749599	0.18355304611868725	1.351334209334633	0.5468526887118931	0.2090473253194084	1.406000797950421	0.4939945970011579	0.20900517166969163	1.3863847381202707	0.43959951487796417	
102	1.7	0.36011341561551813	0.8197052932242761	0.7210657371223252	0.38213786900840396	0.39522021303996924	0.6988418349660249	0.39290069246608517	-0.05084846531185609	0.6680322230233486	0.38992149680791055	-0.07904183242106799	0.5842529648050816	0.45004091422125225	-0.06873417858632283	0.5937906338002708	0.36622566218781943	-0.11510017763426217	0.7210063636165308	0.14041456505305397	0.804462729971035	0.6799146730747827	0.1673820689610314	0.37298165691132656	0.6714241039895686	0.1732606485136183	-0.06963407542916376	0.6879746005986677	0.23973730059679524	-0.10247333776143447	0.6148161634290759	0.17103709131737194	-0.10340782002583718	0.6106540300108854	0.15364340394360046	-0.1392272591511291	0.7586509943851907	0.22794584961408393	1.3345232754721155	0.7391165169643025	0.23929681756372112	1.5948363377530486	0.6783006000965577	0.25202074831506216	1.4516287250461326	0.6368198666975574	0.3831259104472742	1.2806705533812028	0.7071789398116131	0.45933746906436385	1.1545708900494374	0.5232330808255976	0.3583435718572621	1.3256151752588496	0.48386901282510797	0.28729613316731	1.3855102123123022	0.505779531765723	0.2938560240004236	1.4271106268922689	0.46652763237922945	0.2949041083669538	1.41041267447199	0.4389804422441941	0.09309920950357942	1.2613459961233848	0.7054034550184176	0.05712244956036444	1.1137875399635881	0.48654355065101673	0.14518142322643535	1.2886861877804363	0.4922040531701478	0.17981903012331343	1.3487530131484458	0.5379470508839812	0.20865032161726255	1.4016294878209965	0.48465577530309434	0.20875981981424968	1.3846404544791622	0.43756643576999743	
103	1.7166666666666666	0.3601146510564266	0.8196481605547016	0.7209201096907549	0.3823112013718204	0.394694281193205	0.6989718284346769	0.39312886801522967	-0.05111120247518744	0.6681630402405114	0.39040581038824484	-0.07892302778514121	0.5834340532957779	0.4499541900284388	-0.0689188731433292	0.5937872396977459	0.3660302357676282	-0.11441736062330858	0.7201091314576605	0.14035584119428418	0.8045953304855493	0.6798831144859017	0.1672700978470542	0.3726119845125814	0.6712862928465377	0.17314508107094914	-0.06898863680731519	0.6877809030378285	0.23961651515544716	-0.1011468134574468	0.614879515568568	0.17095325888915558	-0.10268372131346129	0.6101503850858543	0.15383232882092682	-0.1385266753715273	0.7580196892927192	0.22805969628791173	1.3338972264795093	0.7389726887583009	0.2391854887153454	1.5944330093356116	0.6784065948479652	0.2515763784850937	1.4514256164425468	0.6362216831468435	0.38302802820969106	1.2799358655522086	0.7112721208178754	0.4610641729377662	1.1542035923415825	0.5221571176938185	0.3645066958850615	1.323205495448522	0.4780662934141463	0.29010165901798557	1.383694508627228	0.5018122175021094	0.29417220306057873	1.4231711990433311	0.46447909553409233	0.2964855311856543	1.4060305793426375	0.4350952640064723	0.09282752228495214	1.260302647157822	0.7103159553404417	0.05625819777928625	1.111549594762639	0.4842507736282372	0.143600339707163	1.2841791890425853	0.4899622307775058	0.1752211697079631	1.3452635462963711	0.5273136372404275	0.20739282404775844	1.3959418897819418	0.4751008678950761	0.2077315064112697	1.3818982639944575	0.4347180857466434	
104	1.7333333333333334	0.36008215252859316	0.8196896449266755	0.7206037962228549	0.3825274739899262	0.3942674058878368	0.6991478437634732	0.3934058337150892	-0.05148969865881546	0.6683131930091831	0.3913775583616842	-0.07837979693087435	0.5817396536005197	0.45029218099998036	-0.0689502786446434	0.5937006822161028	0.365836955186129	-0.11380580162912134	0.7191719529946398	0.14028894442408923	0.8047678556419228	0.679813726264583	0.16711365086713	0.37237112276986006	0.6711066674467204	0.1730044570928949	-0.06813919572705487	0.6876099589177856	0.23990827677088938	-0.09995669234348543	0.6148158606056314	0.17111092571589742	-0.10232950039848461	0.6106119169123602	0.15405089053935075	-0.13773546557620311	0.7575750542814732	0.22816633803542818	1.3330756016993393	0.7386582775443193	0.23931870606817493	1.59386083091822	0.6778762533864754	0.25133096300495505	1.451109084203476	0.6351135436136104	0.3830944551334863	1.2793115002108708	0.7157789675690176	0.4633780096988367	1.1513914236964262	0.5217447245970801	0.37135961274659135	1.319243705146748	0.47192082070632313	0.293619825804538	1.3813282110167333	0.4978477325255325	0.2952633720566384	1.4170406107043818	0.4620498513521	0.2988538534376946	1.399037060123409	0.4308964111581395	0.0922369574580154	1.260693853680618	0.7154301179732013	0.05455673930282656	1.1084955344856868	0.4831442310385461	0.14124231778426907	1.279293810160411	0.48535812174819604	0.17071773920960512	1.341375385735545	0.5154871235059145	0.20479181478421576	1.3897083332725304	0.4663140911350697	0.20519866707645357	1.377845526225606	0.4308835878433518	
105	1.75	0.3600131096704149	0.8197748961692775	0.7203351909532828	0.38277759750699536	0.3939915217685179	0.6993437909154221	0.3937065173629943	-0.05192491874315536	0.6684750167020277	0.3926305131485691	-0.07722669493473958	0.5794321466912649	0.45093161737797194	-0.06879550515053072	0.593532893053244	0.3657038437410944	-0.11327272275752814	0.7181945747496916	0.1402156051381411	0.8050258482637032	0.6796991285078497	0.16690933599330546	0.37225722133001593	0.6708639659287581	0.17287808195066226	-0.0672175007760685	0.6874502759258889	0.24067274395441748	-0.0993075464180129	0.6145331455831962	0.17137776623365605	-0.10258081637093135	0.612046137075026	0.1542888545876917	-0.13699922514336288	0.7573220155280806	0.22827404486184505	1.3322869490935592	0.7382204105937193	0.23982586085523477	1.5932453456651925	0.6764525332881399	0.2513584034527856	1.4508328446119614	0.6331572785224964	0.3835889430564319	1.2788731948030918	0.7199989418556296	0.46648364075601856	1.146115267304229	0.522666378238817	0.378171905080367	1.3138034911262366	0.4661551364642585	0.2975068151953876	1.3787002829922586	0.494167426112172	0.2970775713969792	1.4090872707866111	0.4595297774878258	0.30208307491453146	1.390184370837878	0.42560747660277626	0.09124000810940847	1.2628745706675797	0.7201415790441305	0.05136923895682369	1.1045423392505587	0.484635652051581	0.13796418610095215	1.2743827734178304	0.47753182034745917	0.16686854278014562	1.337550626925275	0.5031368375743014	0.20073877669565565	1.3833617463747614	0.4584643356498812	0.20094273021110315	1.3726379302937615	0.42583458615535563	
106	1.7666666666666666	0.3599039534316273	0.8198525234799124	0.7203220484544971	0.38305773932789594	0.39389469457344556	0.6995404955805201	0.3939851858969262	-0.05238491700572037	0.6686207465805962	0.3939349412742216	-0.07555831889610991	0.5769003699802018	0.45155884076194297	-0.0685692510488264	0.5933195849434096	0.36568106899626635	-0.11277575098816273	0.7171590192371369	0.14014033222983638	0.8054142974944704	0.6795591445286266	0.16664330401252306	0.3722128415171391	0.6705312989984195	0.1728126061926035	-0.06644861845457323	0.6873037958266259	0.24180166014500115	-0.0994657820447837	0.6138293605494756	0.17144905713021377	-0.10347935827433659	0.6138792339730399	0.1545975789805039	-0.13643139207885674	0.7571454050139214	0.22840882616230007	1.3316974219317066	0.7377504332984763	0.2406895987871025	1.5926986536242052	0.6742140037445208	0.2516112701824291	1.4507335813435382	0.63048400403579	0.38451111705985647	1.278559390597144	0.723189097894402	0.4706983508342103	1.1387227040502501	0.5259893750640323	0.38410421186909943	1.3076296325764816	0.46124776820543467	0.30125040194880354	1.3760939924705593	0.49124275197968115	0.29920963230781644	1.4005286121739766	0.4574037416901232	0.30607083146561176	1.380670411538358	0.41873513055098566	0.08992339160701251	1.2665888680735928	0.7239342209101574	0.04619544294363008	1.0995657530184448	0.49011299283974785	0.13387445861074432	1.2695247007755348	0.46706358802721226	0.16361745632943003	1.333909142820586	0.49180405794475934	0.1954506296221306	1.3768412805832568	0.4516452215278513	0.19526774465376864	1.3663694968706124	0.4193673559745893	
